<svg xmlns="http://www.w3.org/2000/svg" class="hide"><symbol id="add" viewBox="0 0 32 32">
  <g fill="#0f0f0f">
    <path d="M13 19c4.4 0 8-3.6 8-8V9c0-4.4-3.6-8-8-8S5 4.6 5 9v2c0 4.4 3.6 8 8 8z"/>
    <path d="M25 17c-2.8 0-5.2 1.7-6.3 4H8c-3.9 0-7 3.1-7 7v2c0 .6.4 1 1 1h23c3.9 0 7-3.1 7-7s-3.1-7-7-7zm0 12c-2.8 0-5-2.2-5-5s2.2-5 5-5 5 2.2 5 5-2.2 5-5 5z"/>
    <path d="M27 23h-1v-1c0-.6-.4-1-1-1s-1 .4-1 1v1h-1c-.6 0-1 .4-1 1s.4 1 1 1h1v1c0 .6.4 1 1 1s1-.4 1-1v-1h1c.6 0 1-.4 1-1s-.4-1-1-1z" data-color="color-2"/>
  </g>
</symbol><symbol id="alert-sharp" viewBox="0 0 48 48">
  <path fill="#0f0f0f" d="M46.886 45.536l-22-42c-.345-.659-1.427-.659-1.771 0l-22 42c-.163.31-.151.682.03.981S1.65 47 2 47h44c.35 0 .674-.183.855-.482s.193-.672.031-.982zM23 20c0-.552.448-1 1-1s1 .448 1 1v13c0 .552-.448 1-1 1s-1-.448-1-1V20zm1 21c-1.105 0-2-.895-2-2s.895-2 2-2 2 .895 2 2-.895 2-2 2z"/>
</symbol><symbol id="alert" viewBox="0 0 32 32">
  <path fill="#0f0f0f" d="M30.88 29.526l-14-26c-.349-.647-1.412-.647-1.761 0l-14 26c-.167.31-.159.685.022.987.181.302.507.487.859.487h28c.352 0 .678-.185.858-.487.181-.303.189-.677.022-.987zM16 26c-.552 0-1-.448-1-1s.448-1 1-1 1 .448 1 1-.448 1-1 1zm1-4h-2v-8h2v8z"/>
</symbol><symbol id="arrows-bold-down" viewBox="0 0 16 16">
  <path fill="#0f0f0f" d="M16 5.6l-3.2-3.2L8 7.2 3.2 2.4 0 5.6l8 8"/>
</symbol><symbol id="arrows-bold-right" viewBox="0 0 16 16">
  <path fill="#0f0f0f" d="M5.6 0L2.4 3.2 7.2 8l-4.8 4.8L5.6 16l8-8"/>
</symbol><symbol id="drop" viewBox="0 0 32 32">
  <path fill="#0f0f0f" d="M16.7 1.3c-.4-.4-1-.4-1.4 0C14.8 1.8 4 12.7 4 20c0 7.5 6.1 12 12 12s12-4.5 12-12c0-7.3-10.8-18.2-11.3-18.7zM16 25c-1.4 0-5-.9-5-5 0-.6.4-1 1-1s1 .4 1 1c0 2.8 2.5 3 3 3s1 .5 1 1-.5 1-1 1z"/>
</symbol><symbol id="home" viewBox="0 0 32 32">
  <g fill="#0f0f0f">
    <path d="M15.998 5.951L4 16.237V30c0 .552.448 1 1 1h8v-8h6v8h8c.552 0 1-.448 1-1V16.238L15.998 5.951zM19 19h-6v-5h6v5z"/>
    <path d="M15.998.683L9 6.682V3H5v7.111L.59 13.892l1.302 1.518L15.998 3.317l14.11 12.093 1.302-1.518" data-color="color-2"/>
  </g>
</symbol><symbol id="menu-bold" viewBox="0 0 48 48">
  <g>
    <path d="M46 20H2c-.6 0-1 .4-1 1v6c0 .6.4 1 1 1h44c.6 0 1-.4 1-1v-6c0-.6-.4-1-1-1z" data-color="color-2"/>
    <path d="M46 4H2c-.6 0-1 .4-1 1v6c0 .6.4 1 1 1h44c.6 0 1-.4 1-1V5c0-.6-.4-1-1-1zm0 32H2c-.6 0-1 .4-1 1v6c0 .6.4 1 1 1h44c.6 0 1-.4 1-1v-6c0-.6-.4-1-1-1z"/>
  </g>
</symbol><symbol id="phone-call" viewBox="0 0 48 48">
  <g>
    <path d="M38 47C17.598 47 1 30.402 1 10c0-.265.105-.52.293-.707l6-6c.391-.391 1.023-.391 1.414 0l10 10c.391.391.391 1.023 0 1.414L13.414 20 28 34.586l5.293-5.293c.391-.391 1.023-.391 1.414 0l10 10c.391.391.391 1.023 0 1.414l-6 6c-.187.188-.442.293-.707.293z"/>
    <path d="M46 21c-.552 0-1-.448-1-1 0-9.374-7.626-17-17-17-.552 0-1-.448-1-1s.448-1 1-1c10.477 0 19 8.523 19 19 0 .552-.448 1-1 1z" data-color="color-2"/>
    <path d="M38 21c-.552 0-1-.448-1-1 0-4.962-4.038-9-9-9-.552 0-1-.448-1-1s.448-1 1-1c6.065 0 11 4.935 11 11 0 .552-.448 1-1 1z" data-color="color-2"/>
  </g>
</symbol><symbol id="shopping-credit-card" viewBox="0 0 32 32">
  <g fill="#0f0f0f">
    <path d="M32 11V7c0-1.7-1.3-3-3-3H3C1.3 4 0 5.3 0 7v4h32z" data-color="color-2"/>
    <path d="M0 16v9c0 1.7 1.3 3 3 3h26c1.7 0 3-1.3 3-3v-9H0zm12 7H5c-.6 0-1-.4-1-1s.4-1 1-1h7c.6 0 1 .4 1 1s-.4 1-1 1zm15 0h-2c-.6 0-1-.4-1-1s.4-1 1-1h2c.6 0 1 .4 1 1s-.4 1-1 1z"/>
  </g>
</symbol><symbol id="svg">
    <symbol id="add" viewBox="0 0 32 32">
        <g fill="#0f0f0f">
            <path d="M13 19c4.4 0 8-3.6 8-8V9c0-4.4-3.6-8-8-8S5 4.6 5 9v2c0 4.4 3.6 8 8 8z"/>
            <path d="M25 17c-2.8 0-5.2 1.7-6.3 4H8c-3.9 0-7 3.1-7 7v2c0 .6.4 1 1 1h23c3.9 0 7-3.1 7-7s-3.1-7-7-7zm0 12c-2.8 0-5-2.2-5-5s2.2-5 5-5 5 2.2 5 5-2.2 5-5 5z"/>
            <path d="M27 23h-1v-1c0-.6-.4-1-1-1s-1 .4-1 1v1h-1c-.6 0-1 .4-1 1s.4 1 1 1h1v1c0 .6.4 1 1 1s1-.4 1-1v-1h1c.6 0 1-.4 1-1s-.4-1-1-1z" data-color="color-2"/>
        </g>
    </symbol>
    <symbol id="alert-sharp" viewBox="0 0 48 48">
        <path fill="#0f0f0f" d="M46.886 45.536l-22-42c-.345-.659-1.427-.659-1.771 0l-22 42c-.163.31-.151.682.03.981S1.65 47 2 47h44c.35 0 .674-.183.855-.482s.193-.672.031-.982zM23 20c0-.552.448-1 1-1s1 .448 1 1v13c0 .552-.448 1-1 1s-1-.448-1-1V20zm1 21c-1.105 0-2-.895-2-2s.895-2 2-2 2 .895 2 2-.895 2-2 2z"/>
    </symbol>
    <symbol id="alert" viewBox="0 0 32 32">
        <path fill="#0f0f0f" d="M30.88 29.526l-14-26c-.349-.647-1.412-.647-1.761 0l-14 26c-.167.31-.159.685.022.987.181.302.507.487.859.487h28c.352 0 .678-.185.858-.487.181-.303.189-.677.022-.987zM16 26c-.552 0-1-.448-1-1s.448-1 1-1 1 .448 1 1-.448 1-1 1zm1-4h-2v-8h2v8z"/>
    </symbol>
    <symbol id="arrows-bold-down" viewBox="0 0 16 16">
        <path fill="#0f0f0f" d="M16 5.6l-3.2-3.2L8 7.2 3.2 2.4 0 5.6l8 8"/>
    </symbol>
    <symbol id="arrows-bold-right" viewBox="0 0 16 16">
        <path fill="#0f0f0f" d="M5.6 0L2.4 3.2 7.2 8l-4.8 4.8L5.6 16l8-8"/>
    </symbol>
    <symbol id="drop" viewBox="0 0 32 32">
        <path fill="#0f0f0f" d="M16.7 1.3c-.4-.4-1-.4-1.4 0C14.8 1.8 4 12.7 4 20c0 7.5 6.1 12 12 12s12-4.5 12-12c0-7.3-10.8-18.2-11.3-18.7zM16 25c-1.4 0-5-.9-5-5 0-.6.4-1 1-1s1 .4 1 1c0 2.8 2.5 3 3 3s1 .5 1 1-.5 1-1 1z"/>
    </symbol>
    <symbol id="home" viewBox="0 0 32 32">
        <g fill="#0f0f0f">
            <path d="M15.998 5.951L4 16.237V30c0 .552.448 1 1 1h8v-8h6v8h8c.552 0 1-.448 1-1V16.238L15.998 5.951zM19 19h-6v-5h6v5z"/>
            <path d="M15.998.683L9 6.682V3H5v7.111L.59 13.892l1.302 1.518L15.998 3.317l14.11 12.093 1.302-1.518" data-color="color-2"/>
        </g>
    </symbol>
    <symbol id="menu-bold" viewBox="0 0 48 48">
        <g fill="#0f0f0f">
            <path d="M46 20H2c-.6 0-1 .4-1 1v6c0 .6.4 1 1 1h44c.6 0 1-.4 1-1v-6c0-.6-.4-1-1-1z" data-color="color-2"/>
            <path d="M46 4H2c-.6 0-1 .4-1 1v6c0 .6.4 1 1 1h44c.6 0 1-.4 1-1V5c0-.6-.4-1-1-1zm0 32H2c-.6 0-1 .4-1 1v6c0 .6.4 1 1 1h44c.6 0 1-.4 1-1v-6c0-.6-.4-1-1-1z"/>
        </g>
    </symbol>
    <symbol id="phone-call" viewBox="0 0 48 48">
        <g fill="#0f0f0f">
            <path d="M38 47C17.598 47 1 30.402 1 10c0-.265.105-.52.293-.707l6-6c.391-.391 1.023-.391 1.414 0l10 10c.391.391.391 1.023 0 1.414L13.414 20 28 34.586l5.293-5.293c.391-.391 1.023-.391 1.414 0l10 10c.391.391.391 1.023 0 1.414l-6 6c-.187.188-.442.293-.707.293z"/>
            <path d="M46 21c-.552 0-1-.448-1-1 0-9.374-7.626-17-17-17-.552 0-1-.448-1-1s.448-1 1-1c10.477 0 19 8.523 19 19 0 .552-.448 1-1 1z" data-color="color-2"/>
            <path d="M38 21c-.552 0-1-.448-1-1 0-4.962-4.038-9-9-9-.552 0-1-.448-1-1s.448-1 1-1c6.065 0 11 4.935 11 11 0 .552-.448 1-1 1z" data-color="color-2"/>
        </g>
    </symbol>
    <symbol id="shopping-credit-card" viewBox="0 0 32 32">
        <g fill="#0f0f0f">
            <path d="M32 11V7c0-1.7-1.3-3-3-3H3C1.3 4 0 5.3 0 7v4h32z" data-color="color-2"/>
            <path d="M0 16v9c0 1.7 1.3 3 3 3h26c1.7 0 3-1.3 3-3v-9H0zm12 7H5c-.6 0-1-.4-1-1s.4-1 1-1h7c.6 0 1 .4 1 1s-.4 1-1 1zm15 0h-2c-.6 0-1-.4-1-1s.4-1 1-1h2c.6 0 1 .4 1 1s-.4 1-1 1z"/>
        </g>
    </symbol>
    <symbol id="users-circle" viewBox="0 0 32 32">
        <path fill="#0f0f0f" d="M16.8 0C7.9-.4.4 6.4 0 15.2-.4 24.1 6.4 31.6 15.2 32h.8c8.5 0 15.6-6.7 16-15.2C32.4 7.9 25.6.4 16.8 0zm9.4 25.6c-.8-2.5-2.9-3.4-5.1-4.2-1.1-.4-1.7-1.4-1.9-2.3C20.9 18 22 16.2 22 14v-2c0-3.3-2.7-6-6-6s-6 2.7-6 6v2c0 2.2 1.1 4 2.9 5.1-.3 1-.8 2-1.9 2.3-2.1.7-4.3 1.6-5.1 4.1-2.5-2.7-4-6.3-3.8-10.2C2.4 7.9 8.5 2 16 2h.7c7.7.4 13.6 7 13.3 14.7-.2 3.4-1.6 6.6-3.8 8.9z"/>
    </symbol>
</symbol><symbol id="users-circle" viewBox="0 0 32 32">
  <path fill="#0f0f0f" d="M16.8 0C7.9-.4.4 6.4 0 15.2-.4 24.1 6.4 31.6 15.2 32h.8c8.5 0 15.6-6.7 16-15.2C32.4 7.9 25.6.4 16.8 0zm9.4 25.6c-.8-2.5-2.9-3.4-5.1-4.2-1.1-.4-1.7-1.4-1.9-2.3C20.9 18 22 16.2 22 14v-2c0-3.3-2.7-6-6-6s-6 2.7-6 6v2c0 2.2 1.1 4 2.9 5.1-.3 1-.8 2-1.9 2.3-2.1.7-4.3 1.6-5.1 4.1-2.5-2.7-4-6.3-3.8-10.2C2.4 7.9 8.5 2 16 2h.7c7.7.4 13.6 7 13.3 14.7-.2 3.4-1.6 6.6-3.8 8.9z"/>
</symbol></svg>